#!OML:ASF F:\VICON\USERDATA\INSTALL\rory3\rory3.ASF
:FULLY-SPECIFIED
:DEGREES
296
root 2.97227 16.7338 -0.133684 15.2087 5.19898 10.2638
lowerback -6.05748 1.49069 -0.62104
upperback -2.52874 2.14995 -7.21906
thorax 1.03883 1.07104 -7.03542
lowerneck -2.32712 14.3778 5.52539
upperneck 47.3794 23.8283 -1.6579
head 19.9348 10.493 2.23626
rclavicle 1.0138e-014 -5.1684e-014
rhumerus -36.428 3.74841 -93.9514
rradius 42.6149
rwrist -38.5056
rhand -8.79574 -50.5287
rfingers 7.12502
rthumb 17.143 -79.7925
lclavicle 1.0138e-014 -5.1684e-014
lhumerus -28.0929 -20.5225 81.2454
lradius 41.6563
lwrist 74.4687
lhand -38.406 -13.9485
lfingers 7.12502
lthumb -11.4308 15.7199
rfemur -51.0438 24.098 -5.6834
rtibia 73.9016
rfoot 4.74806 7.95609
rtoes -36.9244
lfemur -32.9832 -6.69291 -35.5255
ltibia 39.0218
lfoot -16.8614 10.4505
ltoes 5.03636
297
root 2.96916 16.7331 -0.135913 15.2084 5.22083 10.2193
lowerback -6.09929 1.45466 -0.628318
upperback -2.48639 2.10548 -7.16709
thorax 1.09872 1.04988 -6.97709
lowerneck -2.44883 14.4209 5.38783
upperneck 47.4319 23.8927 -1.57965
head 19.9603 10.4955 2.31584
rclavicle -1.38155e-014 1.82882e-014
rhumerus -36.3655 3.81907 -93.9199
rradius 42.6218
rwrist -38.5516
rhand -8.59464 -50.7623
rfingers 7.12502
rthumb 17.3366 -80.0091
lclavicle -1.38155e-014 1.82882e-014
lhumerus -28.0393 -20.4059 81.2235
lradius 41.6892
lwrist 74.4233
lhand -38.5641 -13.5217
lfingers 7.12502
lthumb -11.5833 16.1382
rfemur -51.0921 24.1013 -5.62372
rtibia 73.9091
rfoot 4.63139 8.15788
rtoes -37.7083
lfemur -33.011 -6.6885 -35.4589
ltibia 39.0449
lfoot -16.8819 10.4131
ltoes 4.94039
298
root 2.96896 16.736 -0.137729 15.2176 5.23003 10.2215
lowerback -6.08401 1.41926 -0.632949
upperback -2.47351 2.05748 -7.13339
thorax 1.09657 1.02572 -6.94191
lowerneck -2.53583 14.4672 5.28962
upperneck 47.4228 23.9954 -1.60647
head 19.9719 10.5119 2.34416
rclavicle 1.2424e-015 1.66979e-014
rhumerus -36.3129 3.91151 -93.88
rradius 42.592
rwrist -38.5622
rhand -8.69433 -50.3839
rfingers 7.12502
rthumb 17.2407 -79.6391
lclavicle 1.2424e-015 1.66979e-014
lhumerus -27.9823 -20.2739 81.2139
lradius 41.6416
lwrist 74.3978
lhand -38.7301 -13.1249
lfingers 7.12502
lthumb -11.7434 16.526
rfemur -51.0762 24.1171 -5.61648
rtibia 73.9094
rfoot 4.34498 8.23013
rtoes -38.4959
lfemur -33.0228 -6.69876 -35.4512
ltibia 39.029
lfoot -16.8162 10.3986
ltoes 4.9064
299
root 2.96978 16.737 -0.139927 15.2683 5.24326 10.3516
lowerback -6.11341 1.38952 -0.738814
upperback -2.45491 2.02662 -7.15266
thorax 1.12579 1.01112 -6.90305
lowerneck -2.65445 14.4699 5.19182
upperneck 47.4176 24.0127 -1.60275
head 19.9799 10.4972 2.37357
rclavicle 2.68856e-014 -7.95139e-015
rhumerus -36.3025 4.04142 -93.8652
rradius 42.6312
rwrist -38.5812
rhand -8.67047 -50.4584
rfingers 7.12502
rthumb 17.2636 -79.7116
lclavicle 2.68856e-014 -7.95139e-015
lhumerus -27.891 -20.2407 81.2101
lradius 41.5744
lwrist 74.3865
lhand -38.7019 -13.1644
lfingers 7.12502
lthumb -11.7162 16.4879
rfemur -51.0522 24.0484 -5.73858
rtibia 73.9263
rfoot 4.06235 8.16455
rtoes -39.1642
lfemur -33.0299 -6.73972 -35.587
ltibia 38.9716
lfoot -16.7703 10.3393
ltoes 5.18912
300
root 2.9669 16.7331 -0.141605 15.3188 5.20348 10.4784
lowerback -6.14649 1.3944 -0.900783
upperback -2.47164 2.04353 -7.17898
thorax 1.12427 1.01989 -6.83609
lowerneck -2.80999 14.4505 5.0324
upperneck 47.5246 23.9336 -1.3957
head 20.0031 10.4529 2.49261
rclavicle -8.99501e-015 3.89618e-014
rhumerus -36.4101 4.05087 -93.8498
rradius 42.7443
rwrist -38.4937
rhand -8.32901 -50.9025
rfingers 7.12502
rthumb 17.5922 -80.1266
lclavicle -8.99501e-015 3.89618e-014
lhumerus -27.8064 -20.2825 81.2376
lradius 41.4437
lwrist 74.4072
lhand -38.752 -13.2311
lfingers 7.12502
lthumb -11.7645 16.4185
rfemur -51.1395 23.9979 -5.87361
rtibia 73.9635
rfoot 3.85573 8.34998
rtoes -40.0976
lfemur -33.0278 -6.71667 -35.7265
ltibia 38.8759
lfoot -16.7585 10.2914
ltoes 5.34014
301
root 2.96636 16.7362 -0.139581 15.3052 5.14691 10.5259
lowerback -6.09348 1.41613 -0.958294
upperback -2.52691 2.07 -7.20175
thorax 1.03915 1.03171 -6.82714
lowerneck -2.84975 14.4315 4.93957
upperneck 47.6022 23.856 -1.22675
head 19.9991 10.4238 2.57192
rclavicle -4.16454e-014 9.62118e-014
rhumerus -36.5322 3.96376 -93.8428
rradius 42.7241
rwrist -38.3778
rhand -7.96515 -50.9967
rfingers 7.12502
rthumb 17.9424 -80.1891
lclavicle -4.16454e-014 9.62118e-014
lhumerus -27.8743 -20.3468 81.2791
lradius 41.3766
lwrist 74.486
lhand -38.9518 -13.324
lfingers 7.12502
lthumb -11.9572 16.3145
rfemur -51.1714 24.0841 -5.95216
rtibia 73.9532
rfoot 3.98917 8.3729
rtoes -39.787
lfemur -32.9335 -6.66597 -35.7935
ltibia 38.7494
lfoot -16.744 10.3067
ltoes 5.41934
302
root 2.96754 16.7433 -0.137074 15.2739 5.14061 10.5783
lowerback -6.03744 1.42451 -0.969438
upperback -2.59548 2.07531 -7.24361
thorax 0.938398 1.03241 -6.86751
lowerneck -2.74306 14.4161 4.98795
upperneck 47.574 23.8255 -1.24081
head 19.9621 10.4267 2.53937
rclavicle -2.78299e-015 5.88403e-014
rhumerus -36.6766 3.91968 -93.8892
rradius 42.6489
rwrist -38.3762
rhand -7.86149 -50.8787
rfingers 7.12502
rthumb 18.0421 -80.0619
lclavicle -2.78299e-015 5.88403e-014
lhumerus -28.1192 -20.4402 81.3264
lradius 41.4267
lwrist 74.5223
lhand -39.0853 -13.3829
lfingers 7.12502
lthumb -12.0859 16.2481
rfemur -51.063 24.2139 -6.01693
rtibia 73.9033
rfoot 3.99759 8.31292
rtoes -39.6906
lfemur -32.7973 -6.6594 -35.8549
ltibia 38.6038
lfoot -16.6899 10.3012
ltoes 5.43608
303
root 2.96914 16.7471 -0.13703 15.2486 5.15305 10.6511
lowerback -6.05787 1.40519 -0.999478
upperback -2.61995 2.05081 -7.25998
thorax 0.92116 1.01964 -6.86958
lowerneck -2.65825 14.4351 5.02996
upperneck 47.5211 23.8841 -1.3331
head 19.9395 10.4531 2.49143
rclavicle 3.30976e-014 -4.69132e-014
rhumerus -36.777 3.94361 -93.8704
rradius 42.6808
rwrist -38.2842
rhand -7.53528 -51.261
rfingers 7.12502
rthumb 18.3559 -80.4149
lclavicle 3.30976e-014 -4.69132e-014
lhumerus -28.2421 -20.4033 81.3605
lradius 41.4367
lwrist 74.495
lhand -39.1332 -13.2653
lfingers 7.12502
lthumb -12.1321 16.3629
rfemur -50.9349 24.3031 -6.08089
rtibia 73.8535
rfoot 3.84681 8.27208
rtoes -40.1509
lfemur -32.6384 -6.67542 -35.9372
ltibia 38.3913
lfoot -16.539 10.2831
ltoes 5.28736
304
root 2.97147 16.7475 -0.136594 15.1811 5.12158 10.8287
lowerback -6.04737 1.38206 -1.15468
upperback -2.60191 2.02966 -7.29724
thorax 0.927675 1.00991 -6.82171
lowerneck -2.58634 14.4481 5.0986
upperneck 47.4416 23.9566 -1.49792
head 19.9277 10.4801 2.41175
rclavicle -1.65488e-014 3.97569e-014
rhumerus -36.7473 3.96669 -93.8005
rradius 42.6708
rwrist -38.2038
rhand -7.24501 -51.4359
rfingers 7.12502
rthumb 18.6352 -80.5633
lclavicle -1.65488e-014 3.97569e-014
lhumerus -28.283 -20.3398 81.3639
lradius 41.473
lwrist 74.4962
lhand -39.1007 -13.1911
lfingers 7.12502
lthumb -12.1007 16.439
rfemur -50.8359 24.3281 -6.26159
rtibia 73.8592
rfoot 3.92766 8.1596
rtoes -39.5915
lfemur -32.4864 -6.66991 -36.1509
ltibia 38.3057
lfoot -16.5091 10.2692
ltoes 5.29003
305
root 2.96919 16.7561 -0.126788 14.749 5.66658 11.1194
lowerback -5.71742 1.19632 -1.35265
upperback -2.39646 1.78824 -7.33818
thorax 0.925229 0.891664 -6.77269
lowerneck -2.53003 14.4247 5.24214
upperneck 47.3495 23.9657 -1.68429
head 19.9274 10.4909 2.30393
rclavicle 1.88845e-015 -4.69132e-014
rhumerus -36.6515 4.07674 -93.8581
rradius 42.5671
rwrist -38.7013
rhand -8.4994 -50.2157
rfingers 7.12502
rthumb 17.4283 -79.4544
lclavicle 1.88845e-015 -4.69132e-014
lhumerus -28.26 -20.4044 81.3605
lradius 41.4461
lwrist 74.586
lhand -39.0918 -13.0841
lfingers 7.12502
lthumb -12.0922 16.5464
rfemur -49.8835 24.1196 -6.04605
rtibia 73.8429
rfoot 3.9651 7.91861
rtoes -38.7053
lfemur -31.7867 -6.95611 -36.3835
ltibia 38.2431
lfoot -16.6095 10.0964
ltoes 5.34887
306
root 2.96898 16.7432 -0.143475 15.1553 5.13645 10.7931
lowerback -6.01069 1.41713 -1.05942
upperback -2.54808 2.07372 -7.31637
thorax 0.971949 1.03306 -6.89405
lowerneck -2.52257 14.3893 5.34945
upperneck 47.2028 23.9435 -1.86967
head 19.8906 10.4848 2.19577
rclavicle -1.0635e-014 3.73715e-014
rhumerus -36.5323 4.13815 -93.918
rradius 42.5321
rwrist -39.2753
rhand -8.76111 -50.1928
rfingers 7.12502
rthumb 17.1764 -79.4537
lclavicle -1.0635e-014 3.73715e-014
lhumerus -28.093 -20.4288 81.3425
lradius 41.3482
lwrist 74.5555
lhand -38.7654 -13.2688
lfingers 7.12502
lthumb -11.7774 16.38
rfemur -50.9455 24.2147 -6.23179
rtibia 73.9169
rfoot 4.21517 8.33313
rtoes -38.8669
lfemur -32.5331 -6.67708 -36.0981
ltibia 38.3527
lfoot -16.5179 10.2568
ltoes 5.2278
307
root 2.96764 16.7443 -0.148893 15.0875 5.16449 10.6214
lowerback -5.88962 1.42076 -0.863756
upperback -2.55561 2.05992 -7.25963
thorax 0.899736 1.0243 -6.9495
lowerneck -2.37877 14.3836 5.42024
upperneck 47.0941 23.9331 -1.95687
head 19.8124 10.4969 2.12243
rclavicle -2.03257e-014 1.82882e-014
rhumerus -36.5383 4.09899 -93.9102
rradius 42.5035
rwrist -39.2965
rhand -9.39947 -48.4769
rfingers 7.12502
rthumb 16.5619 -77.7901
lclavicle -2.03257e-014 1.82882e-014
lhumerus -28.1192 -20.3431 81.3316
lradius 41.3774
lwrist 74.4725
lhand -38.5707 -13.1859
lfingers 7.12502
lthumb -11.5897 16.4736
rfemur -50.958 24.2381 -5.99915
rtibia 73.922
rfoot 4.51747 8.09241
rtoes -37.736
lfemur -32.5574 -6.65598 -35.9013
ltibia 38.4382
lfoot -16.5159 10.303
ltoes 5.0901
308
root 2.96535 16.7451 -0.15003 15.072 5.08189 10.5907
lowerback -5.86651 1.42438 -0.904766
upperback -2.61279 2.06104 -7.22368
thorax 0.824974 1.02323 -6.88823
lowerneck -2.18603 14.3992 5.46457
upperneck 47.0807 23.9422 -1.95299
head 19.7613 10.5211 2.09662
rclavicle 8.64713e-015 -1.82882e-014
rhumerus -36.6117 4.09898 -93.8974
rradius 42.3864
rwrist -39.1453
rhand -9.3727 -48.9681
rfingers 7.12502
rthumb 16.5876 -78.2792
lclavicle 8.64713e-015 -1.82882e-014
lhumerus -28.2406 -20.2959 81.3562
lradius 41.3909
lwrist 74.5707
lhand -38.6132 -13.027
lfingers 7.12502
lthumb -11.6307 16.6302
rfemur -50.9923 24.3184 -5.98655
rtibia 73.9183
rfoot 4.75198 7.72852
rtoes -36.4364
lfemur -32.6426 -6.61545 -35.8554
ltibia 38.5077
lfoot -16.6123 10.2478
ltoes 6.02328
309
root 2.96661 16.7459 -0.150707 15.095 4.97356 10.6089
lowerback -5.93049 1.44028 -0.946851
upperback -2.61994 2.08713 -7.21746
thorax 0.854551 1.03677 -6.85407
lowerneck -2.09216 14.4059 5.47076
upperneck 46.9902 23.9628 -2.02882
head 19.6962 10.5323 2.04876
rclavicle 2.1916e-014 1.59028e-014
rhumerus -36.5653 4.14849 -93.8892
rradius 42.2319
rwrist -39.145
rhand -9.57848 -48.8733
rfingers 7.12502
rthumb 16.3895 -78.2008
lclavicle 2.1916e-014 1.59028e-014
lhumerus -28.1874 -20.2875 81.3651
lradius 41.2606
lwrist 74.5982
lhand -38.2569 -13.4062
lfingers 7.12502
lthumb -11.287 16.2701
rfemur -51.0477 24.3872 -6.08844
rtibia 73.9121
rfoot 4.80597 7.64069
rtoes -36.2582
lfemur -32.7263 -6.59799 -35.8814
ltibia 38.5295
lfoot -16.7028 10.1933
ltoes 6.97292
310
root 2.96541 16.7544 -0.143451 14.6377 5.62275 10.8664
lowerback -5.53639 1.19658 -1.07457
upperback -2.3835 1.76256 -7.22566
thorax 0.839591 0.87666 -6.81659
lowerneck -2.1355 14.4086 5.49702
upperneck 46.9807 23.9739 -2.06231
head 19.7158 10.5334 2.0381
rclavicle 2.95692e-014 -1.82882e-014
rhumerus -36.4335 4.16012 -93.849
rradius 42.1592
rwrist -39.0041
rhand -9.53698 -48.7348
rfingers 7.12502
rthumb 16.4295 -78.059
lclavicle 2.95692e-014 -1.82882e-014
lhumerus -28.042 -20.2971 81.3216
lradius 41.1562
lwrist 74.5749
lhand -38.2391 -13.1511
lfingers 7.12502
lthumb -11.2699 16.5262
rfemur -49.9984 24.1544 -5.78041
rtibia 73.9021
rfoot 4.76484 7.27521
rtoes -35.3725
lfemur -31.9735 -6.93026 -36.0877
ltibia 38.5186
lfoot -16.7296 10.1389
ltoes 6.01775
